<svg width="43" height="40" viewBox="0 0 43 40" fill="none" xmlns="http://www.w3.org/2000/svg">
<path d="M42.3646 33.3569L40.4448 29.4922C39.1068 26.7975 35.7765 25.1607 33.1778 24.9347C32.2616 24.8565 30.5265 24.5524 29.0524 24.2079C27.8696 23.9322 27.1819 23.7158 26.8006 23.5751C26.8938 23.2347 27.0657 22.8934 27.326 22.5387C30.2574 20.2508 32.0022 16.4336 32.0022 12.3019C32.0022 5.51814 27.2838 0 21.4861 0C15.6884 0 10.97 5.51893 10.97 12.3026C10.97 16.4367 12.7155 20.2516 15.6446 22.541C15.9017 22.8831 16.08 23.2323 16.1755 23.5894C15.7855 23.7379 15.0906 23.9599 13.8911 24.2372C12.2403 24.6171 10.5689 24.9213 9.72754 24.9916C7.20756 25.2057 3.80647 26.8963 2.45416 29.6163L0.541492 33.5828C-0.173269 35.0183 -0.181229 36.6725 0.52239 37.7967C1.38361 39.1752 2.73035 40 4.12645 40H38.7789C40.171 40 41.5169 39.1776 42.3821 37.7967C43.0905 36.6686 43.0818 34.8002 42.3646 33.3569ZM40.7202 36.7721C40.3326 37.3922 39.6162 38.0574 38.7789 38.0574H4.12645C3.28513 38.0574 2.57196 37.3946 2.18433 36.7736C1.84605 36.2341 1.89461 35.2545 2.30054 34.436L4.2132 30.4687C5.20496 28.4739 7.87934 27.1033 9.89389 26.9303C11.0345 26.8355 12.9989 26.4405 14.3353 26.1324C17.1705 25.4759 17.6974 25.0303 17.8701 24.885C18.093 24.6954 18.2195 24.4157 18.2139 24.1234C18.1924 23.1075 17.8231 22.1421 17.1283 21.2668C17.0749 21.1949 17.0121 21.1325 16.9388 21.0795C14.4276 19.1646 12.9272 15.8853 12.9272 12.3042C12.9272 6.59333 16.7669 1.94735 21.4877 1.94735C26.2092 1.94735 30.0465 6.59333 30.0465 12.3034C30.0465 15.8837 28.5469 19.1638 26.0349 21.074C25.9705 21.123 25.9092 21.187 25.859 21.2502C25.1522 22.1342 24.7837 23.0972 24.7606 24.1108C24.755 24.4015 24.8784 24.6803 25.0989 24.8668C25.2652 25.0106 25.7699 25.4443 28.6058 26.1047C30.1587 26.4657 32.0117 26.7881 33.009 26.8742C35.0395 27.0503 37.7195 28.4005 38.6905 30.3557L40.6103 34.2204C41.0545 35.1154 41.0258 36.2854 40.7202 36.7721Z" fill="white"/>
</svg>
