<svg width="71" height="67" viewBox="0 0 71 67" fill="none" xmlns="http://www.w3.org/2000/svg">
<g clip-path="url(#clip0)">
<path d="M27.8541 28.4456H27.8561C27.8578 28.4456 27.8594 28.4453 27.861 28.4453H50.7012C51.2635 28.4453 51.7579 28.0636 51.9124 27.5104L56.9515 9.46353C57.06 9.07446 56.9839 8.65619 56.7461 8.33325C56.5079 8.01031 56.1356 7.82031 55.7402 7.82031H24.9488L24.0483 3.67349C23.92 3.08368 23.4089 2.66406 22.8184 2.66406H15.2598C14.5639 2.66406 14 3.24112 14 3.95312C14 4.66513 14.5639 5.24219 15.2598 5.24219H21.8079C21.9674 5.97702 26.1174 25.0867 26.3562 26.1861C25.0174 26.7816 24.0781 28.1476 24.0781 29.7344C24.0781 31.8667 25.7736 33.6016 27.8574 33.6016H50.7012C51.397 33.6016 51.9609 33.0245 51.9609 32.3125C51.9609 31.6005 51.397 31.0234 50.7012 31.0234H27.8574C27.1629 31.0234 26.5977 30.445 26.5977 29.7344C26.5977 29.0247 27.1609 28.4473 27.8541 28.4456ZM54.0701 10.3984L49.7508 25.8672H28.8679L25.5085 10.3984H54.0701Z" fill="white"/>
<path d="M26.5976 37.4688C26.5976 39.6011 28.293 41.3359 30.3769 41.3359C32.4607 41.3359 34.1562 39.6011 34.1562 37.4688C34.1562 35.3364 32.4607 33.6016 30.3769 33.6016C28.293 33.6016 26.5976 35.3364 26.5976 37.4688ZM30.3769 36.1797C31.0714 36.1797 31.6366 36.7581 31.6366 37.4688C31.6366 38.1794 31.0714 38.7578 30.3769 38.7578C29.6824 38.7578 29.1171 38.1794 29.1171 37.4688C29.1171 36.7581 29.6824 36.1797 30.3769 36.1797Z" fill="white"/>
<path d="M44.4024 37.4688C44.4024 39.6011 46.0978 41.3359 48.1817 41.3359C50.2655 41.3359 51.961 39.6011 51.961 37.4688C51.961 35.3364 50.2655 33.6016 48.1817 33.6016C46.0978 33.6016 44.4024 35.3364 44.4024 37.4688ZM48.1817 36.1797C48.8762 36.1797 49.4414 36.7581 49.4414 37.4688C49.4414 38.1794 48.8762 38.7578 48.1817 38.7578C47.4872 38.7578 46.9219 38.1794 46.9219 37.4688C46.9219 36.7581 47.4872 36.1797 48.1817 36.1797Z" fill="white"/>
</g>
<defs>
<clipPath id="clip0">
<rect width="71" height="67" fill="white"/>
</clipPath>
</defs>
</svg>
