<svg width="45" height="50" viewBox="0 0 45 50" fill="none" xmlns="http://www.w3.org/2000/svg">
<path d="M1.22323 37.5619L1.87191 34.8633L14.6463 37.0324L15.5702 37.1893L15.7866 36.2775L20.2587 17.4403L20.6693 15.7106L18.9779 16.2579L13.9468 17.8858L13.2547 18.1097V18.8372V25.7442H9.6646V16.5221L23.3779 11.6947C23.8014 11.681 24.1606 11.6212 24.4615 11.5711L24.4809 11.5678C24.8336 11.5091 25.1081 11.4651 25.4348 11.4651C27.0518 11.4651 28.4485 12.2275 29.3965 13.4043L32.1694 17.0957C34.4782 20.4431 38.8567 22.7951 44 23.0667V25.7228C38.4919 25.4868 33.5599 23.3194 30.3199 20.2089L29.0624 19.0016L28.655 20.6965L26.978 27.6733L26.8288 28.2941L27.3292 28.6907L32.8199 33.0416V49H29.2298V36.0465V35.563L28.8509 35.2628L22.9813 30.6116L21.7946 29.6712L21.3956 31.1319L18.8385 40.4932L1.22323 37.5619ZM34.2174 4.65116C34.2174 6.49274 32.3296 8.30233 29.6273 8.30233C26.9251 8.30233 25.0373 6.49274 25.0373 4.65116C25.0373 2.80958 26.9251 1 29.6273 1C32.3296 1 34.2174 2.80958 34.2174 4.65116Z" stroke="#6DC4E0" stroke-width="2"/>
</svg>
