<svg width="44" height="44" viewBox="0 0 44 44" fill="none" xmlns="http://www.w3.org/2000/svg">
<path d="M17.5484 0C7.84678 0 0 7.66691 0 17.1461C0 26.6254 7.84678 34.2923 17.5484 34.2923C21.0121 34.2923 24.2177 33.2994 26.9355 31.6132L39.6129 44L44 39.7135L31.4839 27.5158C33.7339 24.6318 35.0968 21.0584 35.0968 17.1461C35.0968 7.66691 27.25 0 17.5484 0ZM17.5484 4.03438C24.9798 4.03438 30.9677 9.88503 30.9677 17.1461C30.9677 24.4072 24.9798 30.2579 17.5484 30.2579C10.1169 30.2579 4.12903 24.4072 4.12903 17.1461C4.12903 9.88503 10.1169 4.03438 17.5484 4.03438Z" fill="white"/>
</svg>
