<svg width="48" height="47" viewBox="0 0 48 47" fill="none" xmlns="http://www.w3.org/2000/svg">
<path d="M2 1H1V2V6.25V7.25H2H5.70614L13.0058 22.3441L10.3401 27.0888C9.90618 27.8365 9.66667 28.709 9.66667 29.625C9.66667 32.533 12.0828 34.875 15 34.875H41H42V33.875V29.625V28.625H41H16.7012L17.9679 26.375H33.525C35.5109 26.375 37.2746 25.3091 38.1886 23.6759C38.1889 23.6753 38.1892 23.6748 38.1895 23.6743L45.9417 9.89089C46.2131 9.42172 46.3333 8.88489 46.3333 8.375C46.3333 6.63575 44.8922 5.25 43.1667 5.25H11.7513L9.9868 1.56784L9.71468 1H9.085H2ZM15 35C12.0762 35 9.68833 37.3485 9.68833 40.25C9.68833 43.1515 12.0762 45.5 15 45.5C17.9172 45.5 20.3333 43.158 20.3333 40.25C20.3333 37.342 17.9172 35 15 35ZM36.6667 35C33.7429 35 31.355 37.3485 31.355 40.25C31.355 43.1515 33.7429 45.5 36.6667 45.5C39.5839 45.5 42 43.158 42 40.25C42 37.342 39.5839 35 36.6667 35Z" stroke="#6DC4E0" stroke-width="2"/>
</svg>
